:FULLY-SPECIFIED
:FORCE-ALL-JOINTS-BE-3DOF
:DEGREES
1325
root -1.50557 15.1009 6.20226 355.61 23.2859 366.494
lfemur -3.48072 6.90421 -18.3072
ltibia 58.0415 0 0
lfoot -28.5931 24.4124 0
ltoes -14.0214 0 0
rfemur -42.3595 -1.55514 -0.154126
rtibia 32.056 0 0
rfoot 28.9334 5.34181 0
rtoes 9.14143 0 0
lowerback 12.7022 0.234688 -10.8307
upperback -1.43575 -1.25594 1.32801
thorax -8.46667 -0.0648231 7.83573
lowerneck -4.90792 -8.18218 -10.0531
upperneck 15.053 -11.0936 6.20057
head 6.38537 -5.52476 2.7242
lclavicle 2.28749e-14 -7.06095e-15 0
lhumerus -43.7688 -40.7073 117.38
lradius 111.71 0 0
lwrist 43.428 0 0
lhand -29.4133 54.674 0
lfingers 7.12502 0 0
lthumb -2.75086 -271.334 0
rclavicle 2.28749e-14 -7.06095e-15 0
rhumerus 41.9629 21.8777 -54.2386
rradius 102.561 0 0
rwrist -2.28113 0 0
rhand -27.4206 -29.4926 0
rfingers 7.12502 0 0
rthumb -0.831791 -62.9716 0
1326
root -1.51632 15.1017 6.25606 356.199 23.2535 367.047
lfemur -3.53073 6.92159 -18.2726
ltibia 58.1413 0 0
lfoot -28.5699 24.4092 0
ltoes -14.0732 0 0
rfemur -42.356 -1.53065 -0.142773
rtibia 32.0322 0 0
rfoot 28.8639 5.35367 0
rtoes 9.05229 0 0
lowerback 12.7171 0.23737 -10.7846
upperback -1.4339 -1.24382 1.33752
thorax -8.47323 -0.0617534 7.81705
lowerneck -4.90277 -8.13678 -10.0162
upperneck 15.0288 -11.0322 6.14823
head 6.37896 -5.49523 2.70427
lclavicle 2.27516e-14 -7.20541e-15 0
lhumerus -43.807 -40.7806 117.337
lradius 111.788 0 0
lwrist 43.3324 0 0
lhand -29.4133 54.7306 0
lfingers 7.12502 0 0
lthumb -2.75091 -270.793 0
rclavicle 2.27516e-14 -7.20541e-15 0
rhumerus 41.8133 21.9314 -54.2525
rradius 102.645 0 0
rwrist -2.30355 0 0
rhand -27.3221 -29.4246 0
rfingers 7.12502 0 0
rthumb -0.737312 -63.2515 0
1327
root -1.52725 15.1025 6.3105 356.801 23.2197 367.612
lfemur -3.58467 6.93978 -18.2385
ltibia 58.2442 0 0
lfoot -28.5454 24.4056 0
ltoes -14.1249 0 0
rfemur -42.353 -1.50626 -0.12939
rtibia 32.0129 0 0
rfoot 28.7892 5.36404 0
rtoes 8.95988 0 0
lowerback 12.7325 0.240197 -10.7373
upperback -1.43208 -1.23129 1.34719
thorax -8.48007 -0.0585563 7.79778
lowerneck -4.89758 -8.09 -9.97829
upperneck 15.0036 -10.969 6.09472
head 6.37225 -5.46478 2.6839
lclavicle 2.26255e-14 -7.35245e-15 0
lhumerus -43.8382 -40.8562 117.291
lradius 111.867 0 0
lwrist 43.235 0 0
lhand -29.4129 54.7877 0
lfingers 7.12502 0 0
lthumb -2.7505 -270.244 0
rclavicle 2.26255e-14 -7.35245e-15 0
rhumerus 41.656 21.9873 -54.27
rradius 102.728 0 0
rwrist -2.33112 0 0
rhand -27.2203 -29.3577 0
rfingers 7.12502 0 0
rthumb -0.639747 -63.5244 0
1328
root -1.53835 15.1033 6.36557 357.415 23.1845 368.188
lfemur -3.6425 6.95879 -18.2048
ltibia 58.3504 0 0
lfoot -28.5193 24.4015 0
ltoes -14.1763 0 0
rfemur -42.3503 -1.48197 -0.113997
rtibia 31.9981 0 0
rfoot 28.7093 5.37292 0
rtoes 8.86425 0 0
lowerback 12.7482 0.243166 -10.6889
upperback -1.43029 -1.21838 1.35701
thorax -8.4872 -0.0552334 7.77791
lowerneck -4.89235 -8.04185 -9.93928
upperneck 14.9775 -10.9038 6.04005
head 6.36523 -5.43342 2.66309
lclavicle 2.24966e-14 -7.50202e-15 0
lhumerus -43.8626 -40.9342 117.241
lradius 111.946 0 0
lwrist 43.1358 0 0
lhand -29.412 54.8452 0
lfingers 7.12502 0 0
lthumb -2.74966 -269.688 0
rclavicle 2.24966e-14 -7.50202e-15 0
rhumerus 41.491 22.0452 -54.2911
rradius 102.81 0 0
rwrist -2.36379 0 0
rhand -27.1154 -29.292 0
rfingers 7.12502 0 0
rthumb -0.539128 -63.7904 0
1329
root -1.54963 15.1041 6.42127 358.042 23.1478 368.776
lfemur -3.70417 6.97859 -18.1715
ltibia 58.4596 0 0
lfoot -28.4919 24.3969 0
ltoes -14.2276 0 0
rfemur -42.3481 -1.45777 -0.0966137
rtibia 31.9878 0 0
rfoot 28.6243 5.38033 0
rtoes 8.76543 0 0
lowerback 12.7644 0.246277 -10.6393
upperback -1.42852 -1.20508 1.36697
thorax -8.49461 -0.0517859 7.75745
lowerneck -4.8871 -7.99234 -9.8992
upperneck 14.9504 -10.8369 5.98423
head 6.35793 -5.40116 2.64184
lclavicle 2.2365e-14 -7.6541e-15 0
lhumerus -43.8802 -41.0144 117.187
lradius 112.026 0 0
lwrist 43.035 0 0
lhand -29.4107 54.903 0
lfingers 7.12502 0 0
lthumb -2.74837 -269.125 0
rclavicle 2.2365e-14 -7.6541e-15 0
rhumerus 41.3183 22.1051 -54.3157
rradius 102.891 0 0
rwrist -2.40151 0 0
rhand -27.0073 -29.2272 0
rfingers 7.12502 0 0
rthumb -0.435489 -64.0496 0
1330
root -1.56107 15.1048 6.47758 358.681 23.1098 369.374
lfemur -3.76965 6.9992 -18.1386
ltibia 58.572 0 0
lfoot -28.463 24.3919 0
ltoes -14.2786 0 0
rfemur -42.3462 -1.43368 -0.0772593
rtibia 31.9819 0 0
rfoot 28.5343 5.38627 0
rtoes 8.66344 0 0
lowerback 12.781 0.249527 -10.5886
upperback -1.42678 -1.1914 1.37708
thorax -8.5023 -0.0482153 7.73642
lowerneck -4.8818 -7.9415 -9.85807
upperneck 14.9224 -10.7681 5.92728
head 6.35033 -5.36801 2.62015
lclavicle 2.22306e-14 -7.80863e-15 0
lhumerus -43.8911 -41.0969 117.13
lradius 112.107 0 0
lwrist 42.9324 0 0
lhand -29.4089 54.9612 0
lfingers 7.12502 0 0
lthumb -2.74665 -268.555 0
rclavicle 2.22306e-14 -7.80863e-15 0
rhumerus 41.1381 22.1671 -54.3438
rradius 102.972 0 0
rwrist -2.44424 0 0
rhand -26.8962 -29.1636 0
rfingers 7.12502 0 0
rthumb -0.328861 -64.3019 0
1331
root -1.57268 15.1056 6.5345 359.332 23.0704 369.984
lfemur -3.8389 7.02059 -18.1061
ltibia 58.6874 0 0
lfoot -28.4328 24.3864 0
ltoes -14.3294 0 0
rfemur -42.3448 -1.40968 -0.0559532
rtibia 31.9804 0 0
rfoot 28.4392 5.39077 0
rtoes 8.55833 0 0
lowerback 12.7979 0.252916 -10.5367
upperback -1.42508 -1.17733 1.38733
thorax -8.51027 -0.044523 7.71481
lowerneck -4.87647 -7.88933 -9.81589
upperneck 14.8934 -10.6976 5.8692
head 6.34244 -5.33398 2.59803
lclavicle 2.20935e-14 -7.96559e-15 0
lhumerus -43.8954 -41.1815 117.069
lradius 112.188 0 0
lwrist 42.828 0 0
lhand -29.4067 55.0199 0
lfingers 7.12502 0 0
lthumb -2.74449 -267.977 0
rclavicle 2.20935e-14 -7.96559e-15 0
rhumerus 40.9504 22.2311 -54.3754
rradius 103.052 0 0
rwrist -2.49193 0 0
rhand -26.7819 -29.101 0
rfingers 7.12502 0 0
rthumb -0.219277 -64.5474 0
1332
root -1.58446 15.1064 6.59203 359.995 23.0296 370.604
lfemur -3.91188 7.04277 -18.074
ltibia 58.8058 0 0
lfoot -28.4012 24.3805 0
ltoes -14.3799 0 0
rfemur -42.3437 -1.38579 -0.0327149
rtibia 31.9833 0 0
rfoot 28.3392 5.39382 0
rtoes 8.45012 0 0
lowerback 12.8153 0.256441 -10.4837
upperback -1.42339 -1.1629 1.39772
thorax -8.51851 -0.0407104 7.69263
lowerneck -4.87111 -7.83585 -9.77267
upperneck 14.8636 -10.6253 5.81002
head 6.33426 -5.29908 2.57549
lclavicle 2.19537e-14 -8.12493e-15 0
lhumerus -43.893 -41.2684 117.004
lradius 112.27 0 0
lwrist 42.722 0 0
lhand -29.404 55.0789 0
lfingers 7.12502 0 0
lthumb -2.74192 -267.392 0
rclavicle 2.19537e-14 -8.12493e-15 0
rhumerus 40.7553 22.2971 -54.4104
rradius 103.131 0 0
rwrist -2.54455 0 0
rhand -26.6646 -29.0395 0
rfingers 7.12502 0 0
rthumb -0.10677 -64.7863 0
1333
root -1.5964 15.1072 6.65014 360.67 22.9875 371.235
lfemur -3.98855 7.06571 -18.0424
ltibia 58.9271 0 0
lfoot -28.3682 24.3742 0
ltoes -14.4302 0 0
rfemur -42.3429 -1.362 -0.0075639
rtibia 31.9905 0 0
rfoot 28.2343 5.39544 0
rtoes 8.33884 0 0
lowerback 12.833 0.2601 -10.4296
upperback -1.42174 -1.14809 1.40825
thorax -8.52702 -0.0367789 7.66989
lowerneck -4.86571 -7.78108 -9.72844
upperneck 14.8328 -10.5512 5.74974
head 6.3258 -5.26331 2.55253
lclavicle 2.18112e-14 -8.28663e-15 0
lhumerus -43.8842 -41.3574 116.936
lradius 112.352 0 0
lwrist 42.6144 0 0
lhand -29.4009 55.1382 0
lfingers 7.12502 0 0
lthumb -2.73891 -266.8 0
rclavicle 2.18112e-14 -8.28663e-15 0
rhumerus 40.5528 22.365 -54.4488
rradius 103.21 0 0
rwrist -2.60203 0 0
rhand -26.5443 -28.9791 0
rfingers 7.12502 0 0
rthumb 0.0086285 -65.0186 0
